<svg width="359" height="331" viewBox="0 0 359 331" fill="none" xmlns="http://www.w3.org/2000/svg">
<path d="M143.189 2.50314C58.6585 19.5879 0 85.9274 0 164.263C0 227.512 38.1182 284.219 99.7392 312.754C105.269 315.299 117.119 319.661 126.402 322.569C142.203 327.294 145.754 329.637 178.064 330.947C215.4 331.603 227.129 326.204 258.137 312.391C314.425 287.127 350.371 240.235 357.876 181.529C363.011 141.908 350.371 99.1953 323.708 66.1164C315.018 55.0295 292.502 35.2186 280.455 27.585C260.901 15.4076 234.436 5.59293 210.539 1.77613C194.541 -0.950145 157.608 -0.404888 143.189 2.50314ZM208.761 44.3062C221.401 47.7594 233.054 55.5748 240.559 65.5712C245.892 72.8413 247.472 76.2945 252.212 91.38C253.595 95.9238 255.174 97.0143 263.865 98.8318C292.502 104.83 312.056 126.458 312.056 152.63C312.056 176.258 311.66 176.803 250.039 233.874C219.427 262.227 192.566 285.674 190.195 286.4C178.346 288.945 167.879 281.312 167.879 269.86C167.879 262.772 169.26 261.319 221.006 213.518C277.689 160.809 279.269 158.992 274.53 146.087C272.159 139.362 265.05 133.729 256.557 131.911C244.706 129.184 239.769 132.819 186.641 181.529C158.398 207.338 133.117 229.33 130.352 230.238C119.094 234.055 106.849 225.876 106.652 214.244C106.652 208.429 110.602 204.43 158.793 159.718C187.431 133.184 211.921 109.737 213.105 107.556C218.439 97.923 213.698 83.7464 203.428 78.8391C200.269 77.385 193.948 76.1127 189.406 76.1127C180.913 76.1127 180.518 76.4763 127.587 125.004C92.8265 156.811 72.0887 174.441 68.5337 175.167C56.0909 178.076 43.2532 166.443 46.2158 154.993C48.1908 147.723 149.906 54.4843 161.952 48.8499C178.939 40.8529 191.775 39.7623 208.761 44.3062Z" fill="#206BA5"/>
</svg>
